<?xml version="1.0" encoding="UTF-8"?>
<svg width="227px" height="35px" viewBox="0 0 227 35" version="1.1" xmlns="http://www.w3.org/2000/svg" xmlns:xlink="http://www.w3.org/1999/xlink">
    <title>nextdigital</title>
    <g id="Page-1" stroke="none" stroke-width="1" fill="none" fill-rule="evenodd">
        <g id="nextdigital">
            <polygon id="Path" fill="#004987" points="68.7037037 0.339001706 60.5464009 0.339001706 37.5925926 32.7464091 45.7498954 32.7464091"></polygon>
            <polygon id="Path" fill="#004987" points="36.2962963 4.22789059 44.5803768 4.22789059 64.8148148 32.7464091 56.5273238 32.7464091"></polygon>
            <polygon id="Path" points="24.6296296 26.2649276 39.1877204 26.2649276 41.4814815 22.3760387 24.6296296 22.3760387"></polygon>
            <polygon id="Path" points="24.6296296 15.8945573 41.4814815 15.8945573 39.1520897 12.0056684 24.6296296 12.0056684"></polygon>
            <polygon id="Path" fill="#004987" points="25.5094865 25.4557824 25.5094865 22.1239897 42.9245837 22.1239897 45.3703704 18.6871252 42.6334186 14.8401418 25.5094865 14.8401418 25.5094865 11.5151279 40.2664178 11.5151279 35.0871048 4.22789059 18.1481481 4.22789059 18.1481481 32.7464091 35.3748445 32.7430197 40.5541574 25.4557824"></polygon>
            <rect id="Rectangle" fill="#004987" x="0" y="4.22789059" width="7.77777778" height="28.5185185"></rect>
            <polygon id="Path" fill="#004987" points="7.16031846 4.22789059 0 4.22789059 17.4659792 32.7464091 24.6296296 32.7464091"></polygon>
            <polygon id="Path" fill="#004987" points="89.4444444 4.22789059 67.1656195 4.22789059 62.2222222 12.0056684 89.4444444 12.0056684"></polygon>
            <rect id="Rectangle" fill="#004987" x="72.5925926" y="9.41307578" width="7.77777778" height="23.3333333"></rect>
            <path d="M119.259259,18.8860419 C119.259259,23.3821999 117.925577,26.9295446 115.258213,29.5280761 C113.743483,30.9864886 111.8573,31.9745728 109.818108,32.3778965 C108.584315,32.625805 106.506405,32.7486324 103.584379,32.7464091 L97.2222222,32.7464091 L97.2222222,4.22789059 L103.479002,4.22789059 C106.954259,4.22789059 109.622721,4.59637272 111.484387,5.33333697 C113.927824,6.30243368 115.8795,8.1189266 117.339416,10.7828157 C118.619311,13.0951256 119.259259,15.7962009 119.259259,18.8860419 Z M113.93441,18.7508191 C113.93441,12.5463464 110.723694,9.44411002 104.302263,9.44411002 L102.510848,9.44411002 L102.510848,27.4557867 L104.964164,27.4557867 C107.016827,27.4557867 108.55358,27.2608405 109.574423,26.8709481 C111.028701,26.287772 112.216013,25.1642395 112.900395,23.7236375 C113.580957,22.3781706 113.921238,20.7205645 113.921238,18.7508191 L113.93441,18.7508191 Z" id="Shape" fill="#C40D3C" fill-rule="nonzero"></path>
            <polygon id="Path" fill="#C40D3C" points="127.037037 32.7464091 121.851852 32.7464091 121.851852 4.22789059 127.037037 4.22789059"></polygon>
            <path d="M159.437967,20.1330785 C159.517298,22.4857265 158.867917,24.8406172 157.489824,27.1977507 C154.824302,31.7595104 150.716088,34.0403903 145.165183,34.0403903 C142.444638,34.0860502 139.755984,33.4556592 137.345411,32.2069397 C134.952742,30.9334789 132.982406,29.0037314 131.670977,26.6493976 C130.317295,24.3198813 129.613308,21.6763616 129.631036,18.9892745 C129.579881,15.3678716 130.925825,11.8633705 133.394726,9.18956496 C136.370773,5.88598969 140.24326,4.23308068 145.012188,4.23083793 C149.729881,4.14134492 154.2521,6.09362436 157.394627,9.57643986 L153.552739,13.3375368 C151.127476,10.7763128 148.294225,9.49682213 145.052987,9.49906488 C142.441164,9.43696002 139.911609,10.4052158 138.021991,12.1903686 C136.088724,13.9457338 135.01442,16.4407822 135.074277,19.0363723 C135.007259,21.7133164 136.111513,24.2885529 138.103589,26.1010445 C140.05722,27.9465129 142.672388,28.9474431 145.372577,28.8831796 C149.103402,28.8831796 151.734925,27.2560623 153.267147,24.0018276 L144.961189,24.0018276 L144.961189,18.9556332 L159.390369,18.9556332 L159.437967,20.1330785 Z" id="Path" fill="#C40D3C"></path>
            <polygon id="Path" fill="#C40D3C" points="167.222222 32.7464091 162.037037 32.7464091 162.037037 4.22789059 167.222222 4.22789059"></polygon>
            <polygon id="Path" fill="#C40D3C" points="185.37037 9.56243567 180.239708 9.56243567 180.239708 32.7464091 174.821968 32.7464091 174.821968 9.56243567 169.814815 9.56243567 169.814815 4.22789059 185.357018 4.22789059"></polygon>
            <path d="M211.296296,32.7464091 L205.721105,32.7464091 L203.508461,26.8743528 L191.959132,26.8743528 L189.649266,32.7464091 L184.074074,32.7464091 L194.966315,4.22789059 L200.42417,4.22789059 L211.296296,32.7464091 Z M201.486909,21.5905164 L197.73212,11.7598085 L193.960568,21.5905164 L201.486909,21.5905164 Z" id="Shape" fill="#C40D3C" fill-rule="nonzero"></path>
            <polygon id="Path" fill="#C40D3C" points="226.851852 32.7464091 212.592593 32.7464091 212.592593 4.22789059 218.230301 4.22789059 218.230301 27.5910344 226.851852 27.5910344"></polygon>
            <path d="M97.2222222,5.73992591 C97.3842487,5.4270745 97.7233738,5.49927098 97.9155448,5.67460529 L100.967671,8.45932661 C101.059483,8.5425755 101.111111,8.65579742 101.111111,8.77389698 C101.111111,8.89199653 101.059483,9.00521845 100.967671,9.08846735 L97.9155448,11.8731887 C97.8240313,11.9684874 97.6873319,12.0170814 97.5492765,12.0033901 C97.411221,11.9896988 97.2891572,11.9154426 97.2222222,11.8044301 L97.2222222,5.73992591 Z" id="Path" fill="#FFFFFF"></path>
            <rect id="Rectangle" fill="#004987" x="90.7407407" y="4.22789059" width="1.2962963" height="7.77777778"></rect>
            <path d="M92.037037,5.74117838 C92.0950326,5.62168157 92.2187829,5.539634 92.3613741,5.52614003 C92.5039652,5.51264606 92.6435686,5.56977143 92.7272603,5.67585981 L95.7823469,8.46049339 C95.8742482,8.54373966 95.9259259,8.65695801 95.9259259,8.77505385 C95.9259259,8.89314968 95.8742482,9.00636803 95.7823469,9.08961431 L92.7272603,11.8742479 C92.6361203,11.968374 92.5006935,12.0165528 92.3636955,12.0035882 C92.2266975,11.9906235 92.1050182,11.9181137 92.037037,11.8089293 L92.037037,5.74117838 Z" id="Path" fill="#004987"></path>
        </g>
    </g>
</svg>